<svg version="1.2" xmlns="http://www.w3.org/2000/svg" viewBox="0 0 859 859" width="259" height="259">
	<title>icon-svg</title>
	<style>
		.s0 { fill: #ffffff } 
	</style>
	<path id="Shape 3 copy 2" class="s0" d="m264.5 190.5c0-13.8 11.2-25 25-25h278.5c13.8 0 25 11.2 25 25v490c0 13.8-11.2 25-25 25h-278.5c-13.8 0-25-11.2-25-25z"/>
	<path id="Shape 3 copy 4" class="s0" d="m265 624c0-13.8 11.2-25 25-25h543c13.8 0 25 11.2 25 25v56.5c0 13.8-11.2 25-25 25h-543c-13.8 0-25-11.2-25-25z"/>
	<path id="Shape 3 copy 5" class="s0" d="m0 190.5c0-13.8 11.2-25 25-25h543c13.8 0 25 11.2 25 25v56.5c0 13.8-11.2 25-25 25h-543c-13.8 0-25-11.2-25-25z"/>
</svg>